<?xml version="1.0" standalone="no"?>
<!DOCTYPE svg PUBLIC "-//W3C//DTD SVG 20010904//EN"
 "http://www.w3.org/TR/2001/REC-SVG-20010904/DTD/svg10.dtd">
<svg version="1.0" xmlns="http://www.w3.org/2000/svg"
 width="414.000000pt" height="414.000000pt" viewBox="0 0 414.000000 414.000000"
 preserveAspectRatio="xMidYMid meet">
<metadata>
Created by potrace 1.11, written by Peter Selinger 2001-2013
</metadata>
<g transform="translate(0.000000,414.000000) scale(0.100000,-0.100000)"
fill="#000000" stroke="none">
<path d="M2203 4115 c-132 -41 -239 -158 -258 -280 -10 -61 -11 -135 -2 -135
4 0 7 -8 7 -18 0 -25 40 -118 71 -167 48 -74 119 -202 119 -213 0 -7 5 -12 11
-12 6 0 9 -6 7 -12 -3 -7 2 -19 9 -27 8 -7 12 -19 9 -26 -3 -8 2 -16 10 -19 8
-3 13 -9 12 -13 -1 -4 6 -26 16 -48 9 -22 18 -49 19 -60 1 -11 5 -23 10 -26 8
-6 18 -42 20 -71 1 -10 5 -18 10 -18 5 0 6 -8 3 -17 -4 -9 -2 -19 3 -22 5 -4
12 -19 15 -34 13 -76 29 -83 40 -20 12 68 27 104 39 96 8 -4 7 -1 -1 9 -9 11
-10 18 -2 23 6 3 8 10 5 15 -3 5 -1 11 5 15 6 4 8 10 5 15 -3 5 -1 11 5 15 6
4 8 11 5 16 -4 5 -1 9 4 9 6 0 10 3 10 8 -3 19 2 43 9 39 4 -3 8 6 9 20 0 14
7 29 15 34 7 5 10 9 6 9 -10 0 40 112 53 121 6 3 10 9 9 13 -2 13 47 86 54 79
4 -4 4 0 0 10 -3 10 -1 17 5 17 6 0 10 3 9 8 -3 16 15 41 26 35 6 -3 8 -3 4 2
-7 8 39 104 55 116 5 3 8 9 7 13 -3 15 13 75 19 72 8 -5 5 104 -4 152 -4 20
-18 58 -32 85 -26 52 -116 147 -140 147 -7 0 -13 4 -13 9 0 4 -29 18 -65 30
-74 24 -167 27 -232 6z"/>
<path d="M2305 2812 c-29 -21 -46 -52 -40 -71 9 -28 31 -26 60 5 29 31 32 59
9 68 -19 7 -17 7 -29 -2z"/>
<path d="M960 2741 c-125 -47 -233 -166 -246 -274 -8 -63 -10 -137 -3 -137 13
0 17 -38 5 -51 -8 -9 -8 -10 2 -5 7 4 12 2 12 -6 0 -7 20 -48 44 -90 24 -43
41 -80 38 -83 -3 -3 0 -5 7 -5 7 0 10 -4 7 -9 -3 -5 1 -11 9 -15 8 -3 15 -12
15 -21 0 -8 5 -15 11 -15 5 0 8 -4 5 -9 -3 -5 1 -14 9 -21 8 -7 15 -18 15 -25
0 -7 7 -18 15 -25 8 -7 13 -16 10 -20 -3 -5 0 -10 6 -12 6 -2 12 -15 12 -30 1
-14 5 -24 10 -21 6 4 11 -15 10 -44 -1 -7 3 -11 7 -8 15 9 106 -265 96 -291
-4 -10 -2 -13 6 -8 8 5 9 2 5 -9 -3 -10 -3 -17 1 -17 13 0 12 -50 -1 -50 -19
-1 41 -49 69 -56 34 -9 56 12 32 30 -23 17 -23 28 2 44 24 14 27 60 5 68 -18
7 -42 -11 -67 -51 -10 -16 -18 -25 -18 -20 1 26 57 205 62 199 4 -3 4 4 1 17
-4 14 -2 20 4 16 6 -4 11 -1 10 6 -1 39 4 58 15 51 7 -4 8 -3 4 4 -4 7 0 26 8
44 8 18 17 43 21 56 4 13 11 20 18 16 7 -4 9 -4 5 0 -10 12 13 67 25 59 6 -4
7 -1 3 6 -5 7 0 21 10 32 9 10 14 19 10 19 -4 0 0 7 8 16 9 8 16 22 16 30 0 8
4 14 9 14 5 0 14 13 21 30 7 16 17 27 22 23 6 -3 8 0 6 8 -3 8 5 30 17 49 33
52 65 126 65 149 0 11 4 22 8 25 8 5 7 75 -3 140 -9 58 -62 152 -109 192 -23
20 -70 49 -105 66 -54 27 -75 32 -150 34 -60 1 -99 -3 -131 -15z"/>
<path d="M2172 2666 c-44 -47 -53 -80 -25 -90 22 -9 102 70 103 100 0 17 -17
34 -34 34 -2 0 -21 -20 -44 -44z"/>
<path d="M2074 2552 c-7 -4 -28 -26 -47 -50 -37 -44 -39 -72 -6 -72 27 0 100
80 97 105 -3 21 -25 30 -44 17z"/>
<path d="M1909 2373 c-19 -21 -38 -43 -42 -50 -11 -17 3 -43 23 -43 22 0 101
89 98 110 -6 30 -42 22 -79 -17z"/>
<path d="M1775 2222 c-48 -51 -53 -63 -31 -81 11 -9 19 -9 33 0 31 20 82 89
77 104 -12 30 -35 24 -79 -23z"/>
<path d="M1644 2075 c-47 -48 -53 -65 -29 -85 13 -11 23 -5 65 39 42 44 48 55
40 72 -16 28 -28 24 -76 -26z"/>
<path d="M1508 1926 c-44 -52 -50 -86 -15 -86 28 0 100 82 95 108 -6 33 -42
24 -80 -22z"/>
<path d="M1371 1774 c-44 -48 -47 -61 -17 -78 15 -9 25 -3 62 39 47 53 52 78
18 83 -13 2 -34 -12 -63 -44z"/>
<path d="M1289 1671 c-8 -3 -33 -26 -54 -49 -30 -34 -37 -47 -29 -60 6 -9 16
-18 22 -20 13 -4 102 87 102 104 0 18 -23 32 -41 25z"/>
<path d="M2942 1371 c-74 -28 -115 -55 -165 -111 -69 -76 -87 -131 -82 -248 5
-116 6 -122 18 -122 5 0 7 -6 4 -14 -3 -8 1 -17 10 -20 8 -4 13 -13 9 -21 -3
-8 -1 -15 5 -15 6 0 9 -7 5 -15 -3 -8 0 -14 7 -12 7 1 11 -4 9 -10 -1 -7 3
-13 10 -13 6 0 9 -3 5 -6 -3 -3 3 -15 14 -27 10 -11 19 -27 19 -34 0 -7 4 -13
9 -13 10 0 37 -60 33 -73 -1 -5 2 -6 7 -2 6 3 13 -6 17 -20 3 -14 10 -25 16
-25 5 0 7 -4 4 -9 -4 -5 -1 -11 5 -13 6 -2 12 -15 12 -30 1 -14 5 -24 8 -22 7
4 24 -45 21 -58 -1 -5 2 -8 7 -8 9 0 37 -75 43 -115 2 -11 6 -22 10 -25 10 -8
38 -122 32 -132 -3 -4 -1 -8 4 -8 5 0 12 -11 14 -25 l5 -24 -26 18 c-14 10
-33 20 -41 23 -16 6 -50 -8 -50 -21 0 -15 81 -53 98 -45 9 4 20 6 25 6 4 -1 7
5 7 13 0 8 3 15 8 15 4 0 8 15 9 33 2 18 11 58 22 89 11 31 16 60 13 64 -4 4
2 4 13 0 15 -5 17 -4 9 4 -13 13 -7 50 7 50 5 0 8 3 8 8 -5 28 2 44 17 38 14
-5 15 -4 5 8 -13 16 -4 49 12 39 6 -3 7 -1 3 5 -7 11 31 102 47 113 5 3 9 10
9 15 0 5 4 8 10 6 5 -1 7 2 3 7 -7 13 22 71 36 71 6 0 8 4 4 9 -3 5 2 17 11
25 8 9 12 16 7 16 -4 0 0 7 10 14 10 8 18 18 19 23 0 4 4 7 10 5 5 -1 7 2 4 7
-8 12 4 42 14 36 5 -3 12 0 16 6 4 8 3 9 -4 5 -14 -8 -16 6 -3 20 10 10 51
121 50 132 -1 4 0 10 1 15 4 18 2 86 -5 122 -21 107 -96 200 -208 255 -89 44
-201 52 -285 21z"/>
<path d="M1193 1355 c-3 -9 -4 -17 -2 -19 73 -57 144 -82 144 -49 0 16 -95 83
-118 83 -10 0 -20 -7 -24 -15z"/>
<path d="M1357 1253 c-15 -14 -5 -29 42 -61 48 -33 90 -40 98 -16 2 6 -18 25
-44 42 -54 33 -86 46 -96 35z"/>
<path d="M1513 1134 c-3 -8 -4 -16 -2 -18 64 -54 129 -80 143 -58 8 13 -6 27
-53 56 -53 34 -80 40 -88 20z"/>
<path d="M1675 1026 c-15 -11 -14 -15 17 -37 67 -50 82 -57 106 -48 28 11 23
21 -31 57 -56 38 -72 43 -92 28z"/>
<path d="M1825 910 c-6 -10 69 -69 105 -82 10 -4 26 -1 36 6 16 12 13 16 -32
49 -47 35 -96 47 -109 27z"/>
<path d="M1986 801 c-6 -9 51 -59 89 -78 20 -10 52 -10 63 1 7 8 -28 46 -43
46 -7 0 -20 9 -30 20 -18 20 -69 27 -79 11z"/>
<path d="M2152 691 c-18 -11 11 -39 74 -72 40 -22 45 -22 59 -8 15 14 11 19
-37 52 -54 38 -73 43 -96 28z"/>
<path d="M2307 576 c-9 -23 95 -90 127 -82 34 8 26 24 -33 64 -51 34 -85 41
-94 18z"/>
<path d="M2473 473 c-22 -8 -14 -20 40 -57 57 -39 97 -47 97 -18 -1 32 -103
88 -137 75z"/>
<path d="M2637 363 c-27 -7 -17 -23 37 -60 77 -53 138 -40 69 15 -37 28 -78
53 -85 51 -2 -1 -11 -3 -21 -6z"/>
<path d="M2798 252 c-28 -6 -21 -19 30 -57 46 -34 95 -45 107 -25 3 5 -15 24
-40 42 -53 38 -73 46 -97 40z"/>
</g>
</svg>
